<?xml version="1.0" encoding="UTF-8"?>
<svg id="Capa_2" data-name="Capa 2" xmlns="http://www.w3.org/2000/svg" viewBox="0 0 1074.25 146.47">
  <defs>
    <style>
      .cls-1 {
        fill: #fff;
      }
    </style>
  </defs>
  <g id="Capa_1-2" data-name="Capa 1">
    <g>
      <path class="cls-1" d="M73.21,67.33l-.36,1.55c-.9,3.88-2.46,6.74-4.63,8.5-2.16,1.76-5.24,2.65-9.14,2.65-5.26,0-9.26-1.66-12.22-5.07-2.99-3.44-4.51-8.36-4.51-14.61s1.53-11.27,4.55-14.77c2.99-3.46,6.97-5.14,12.18-5.14,7.67,0,11.84,3.51,13.11,11.03l.28,1.67h16.44l-.21-2.19c-.74-7.54-3.88-13.71-9.35-18.32-5.43-4.58-12.25-6.9-20.26-6.9-10.04,0-18.27,3.22-24.46,9.58-6.17,6.34-9.3,14.77-9.3,25.05s3.09,18.74,9.18,24.98c6.11,6.25,14.37,9.41,24.57,9.41,8.17,0,15.06-2.29,20.46-6.82,5.42-4.54,8.71-10.71,9.79-18.32l.32-2.28h-16.44Z"/>
      <path class="cls-1" d="M260.14,92.06c0-8.24-7.73-12.68-15.01-12.68-3.31,0-14.44,1.1-18.49,15.28-1.36,4.68-6.24,7.59-12.73,7.59-3.11,0-5.18-.53-6.17-1.56-1.25-1.31-1.12-3.93-.97-6.96.13-2.72.29-5.8-.51-8.88-.97-3.8-4.26-5.47-6.9-6.81-2.65-1.34-3.82-2.08-3.85-3.41-.05-3.1,1.7-4.5,4.79-6.69,3.08-2.18,6.9-4.89,6.99-10.78.08-4.74-1.16-7.87-2.25-10.63-.77-1.95-1.44-3.64-1.44-5.57,0-6.05,8.49-9.92,12.93-9.92,5.91,0,12.06,1.94,12.79,16.32.31,6.26,6.28,15.32,16.24,15.32,8.03,0,13.64-5.16,13.64-12.54,0-11.04-5.25-13.1-10.32-15.09-3.2-1.26-6.51-2.56-9.43-6.16-1.8-2.23-2.98-4.78-4.12-7.24-2.7-5.83-5.48-11.85-15.93-11.85-9.42,0-15.63,4.6-17.04,12.61-.92,5.2-7.33,9.36-17.16,11.12-3.13.58-6.01,1.93-8.37,3.76-3.23-5.04-9.12-8-16.78-8-18.04,0-37.69,15.13-45.47,38.73.22-2.43.35-4.93.35-7.5,0-17.87-5.33-32.49-15.84-43.46C88.54,6.06,74.52.48,57.42.48c-11.26,0-21.36,2.52-30.01,7.49-8.68,4.99-15.5,12.12-20.27,21.21C2.4,38.21,0,48.76,0,60.52c0,17.76,5.3,32.25,15.77,43.07,10.48,10.83,24.49,16.33,41.65,16.33s31.18-5.51,41.69-16.37c5.58-5.77,9.68-12.57,12.31-20.34-.2,2.18-.31,4.41-.31,6.69,0,18.64,10.56,30.22,27.55,30.22,9.04,0,19.15-5.86,27.7-16.03,1.67-1.86,2.52-3.82,2.52-5.85,0-1.73-.67-3.26-1.8-4.11l-1.31-.98-1.22,1.1c-8.86,7.96-15.56,11.51-21.71,11.51-12.35,0-14.2-10.78-14.2-17.21,0-3.01.47-7.55,1.14-11.2,21.9-.24,37.06-5.26,44.51-14.46.62,1.1,1.25,2.13,1.85,3.11,1.77,2.88,3.3,5.36,3.45,7.98.34,4.66-.01,7.92-.32,10.8-.43,4.05-.78,7.25,1.19,11.54,2.62,5.67,5.65,7.03,8.86,8.48,1.43.65,2.92,1.32,4.53,2.44,1.46,1.04,2.6,2.94,3.82,4.95,2.72,4.49,6.1,10.09,15.16,10.09,8.39,0,10.76-4.12,12.84-7.76,1.2-2.09,2.33-4.07,4.73-5.38,3.73-2.14,5.98-1.67,9.09-1.02,1.54.32,3.29.69,5.34.74,2.92.1,7.19-1,10.54-4.25,2.19-2.13,4.8-6.04,4.8-12.54ZM57.42,104.56c-12.86,0-23.14-3.96-30.54-11.76-7.43-7.83-11.2-18.7-11.2-32.28s3.77-24.88,11.21-32.77c7.41-7.85,17.68-11.84,30.54-11.84s23.13,4,30.54,11.87c7.44,7.92,11.21,18.93,11.21,32.73s-3.76,24.52-11.16,32.33c-7.38,7.78-17.67,11.72-30.58,11.72ZM132.04,67.66c5.67-17.08,15.33-28.37,24.48-28.37,6.03,0,6.68,5.72,6.68,8.19,0,9.12-3.62,19.54-31.17,20.18Z"/>
      <path class="cls-1" d="M499.99,84.18c.2-5.8,1.51-7.59,2.9-9.48,1.27-1.73,2.7-3.69,2.85-8.06.17-6.29-4.33-9.67-8.67-12.93-3.69-2.77-7.18-5.39-8.08-9.73-.5-2.35-.67-5.09-.85-7.99-.64-10.36-1.52-24.54-21.79-24.54-12.34,0-20.63,6.8-20.63,16.93,0,7.48,2.85,10.86,5.15,13.58,1.54,1.83,2.66,3.15,2.66,5.45,0,3.71-3.53,5.05-9.28,6.91-6.44,2.09-14.45,4.69-14.28,14.21.07,4.95,1.9,7.53,3.51,9.8,1.75,2.48,3.27,4.61,3.07,10.08-.17,3.97-3.02,5.71-6.33,7.74-3.55,2.17-7.58,4.63-7.91,10.18-.19,3.66.3,6.68,1.45,9.05l-.5-.28c-1.86-1.04-3.27-1.89-4.2-2.52-.93-.63-1.72-1.21-2.35-1.71-.43-.34-.48-.58-.49-.66-.1-.51-.13-.96-.1-1.33.03-.32.12-1,.43-2.45l12.37-58.31.14-.57c.36-1.87.98-3.22,1.85-4.01.59-.53,2.56-1.87,9.17-4.84l1.18-.53v-3.56h-19.53c.79-.98,1.55-1.97,2.29-2.98,1.13-1.5,2.39-3.43,3.75-5.73,1.39-2.35,2.53-4.86,3.39-7.44.9-2.69,1.28-5.37,1.13-7.94-.17-2.84-1.32-5.29-3.43-7.29l-.08-.07c-1.52-1.31-3.29-2.19-5.25-2.63-1.79-.4-3.69-.58-5.62-.52-1.92.05-3.81.3-5.62.74-1.74.42-3.33.88-4.83,1.38-3.96,1.51-7.71,3.45-11.15,5.76-3.39,2.28-6.63,4.8-9.59,7.49-6.66,5.92-12.57,12.56-17.57,19.73-4.96,7.12-9.56,14.72-13.64,22.52-.83,1.41-1.68,2.58-2.53,3.47-.55.58-1.5.88-2.81.88-1.33-.08-2.66-.36-3.96-.84-1.31-.48-2.49-1.11-3.5-1.9l-.16-.11c-2.64-1.65-4.8-3.81-6.41-6.41-1.6-2.59-2.54-5.49-2.79-8.63-.25-3.01.14-6.19,1.15-9.44,1.03-3.29,2.57-6.37,4.57-9.15,2-2.76,4.41-5.11,7.17-6.98,2.69-1.82,5.65-2.96,8.89-3.39,1.65-.3,3.38-.44,5.17.2.63.21,1.26.54,1.87.97,1.08.76,2.24,1.16,3.44,1.19,1.3.13,2.38-.13,3.19-.76.8-.62,1.31-1.47,1.5-2.46.15-.86.05-1.77-.31-2.72-.33-.85-.83-1.61-1.48-2.26l-.28-.28-.36-.15c-3.77-1.58-7.6-2.18-11.39-1.79-3.63.38-6.85,1.12-9.56,2.18-3.4,1.32-6.75,3.04-9.95,5.12-3.22,2.08-6.17,4.51-8.77,7.21-2.63,2.72-4.86,5.8-6.63,9.15-1.8,3.41-2.92,7.12-3.31,11.06-.29,4.08.22,8.18,1.53,12.2,1.34,4.12,3.63,7.62,6.86,10.44,3.44,2.86,7.37,4.71,11.67,5.5,3.02.55,6.07.93,9.12,1.13-1.9,3.59-3.85,7.03-5.81,10.24-2.49,4.08-5.22,8.29-8.14,12.58-.48.77-.96,1.58-1.42,2.42-.14.25-.32.43-.84.52-.48.1-.99.01-1.55-.26-1.06-.5-2.07-.87-3.01-1.09-2.4-.74-4.89-1.35-7.41-1.81-2.6-.48-5.19-.68-7.67-.58-3.58.09-7.39.59-11.35,1.49-4.19.95-7.79,2.9-10.7,5.81-.75.75-1.35,1.52-1.8,2.29,0-.11-.02-.21-.02-.33,0-.31.06-.91.36-2.01l17.12-73.67c.38-1.6.98-2.89,1.77-3.83.84-1,1.78-1.79,2.8-2.35,1.05-.59,2.13-1,3.21-1.23,1.14-.24,2.15-.37,3.01-.37.77,0,1.05.05,1.03.04l1.93.63,3.44-11.25h-48.23l-2.51,10.07,1.98.46c1.25.29,2.47.51,3.62.65.89.11,1.67.31,2.31.59.48.22.86.53,1.15.95.15.22.4.78.4,2.02,0,.58-.08,1.21-.23,1.89-.19.83-.37,1.75-.55,2.76l-16.83,70.59c-.39,1.57-1.02,2.95-1.86,4.1-.87,1.18-1.86,2.15-2.93,2.88-1.14.77-2.39,1.41-3.74,1.9-1.36.49-2.71.83-4.02.99l-1.38.17-2.54,10.8h48.92l.55-1.77c.51.22,1.01.42,1.5.58,2.17.69,4.45,1.09,6.75,1.19,2.24.09,4.48.02,6.67-.21,2.18-.24,4.36-.62,6.49-1.14,2.07-.5,4.1-1.04,5.95-1.57,2.41-.58,4.66-1.36,6.73-2.35.93-.46,1.83-.94,2.68-1.41.51-.28,1.08-.43,1.72-.43,1.29.08,2.54.5,3.79,1.28,1.7,1.05,3.43,1.83,5.08,2.32,1.93.64,4,1.31,6.2,2,2.26.71,4.56,1.3,6.84,1.76,2.33.47,4.66.79,6.92.93.54.03,1.08.05,1.62.05,1.82,0,3.62-.19,5.4-.58,1.23-.28,2.58-.64,4.01-1.06,1.52-.44,3.01-1.01,4.42-1.69,1.5-.72,2.85-1.65,4.01-2.75,1.15-1.1,2.05-2.42,2.7-3.95.53-.75.79-1.57.79-2.43,0-.54-.19-2.36-2.66-2.98-1.58-.35-3.07.22-4.09,1.57-.55.73-.93,1.1-1.21,1.32-.94.81-2.03,1.23-3.32,1.3-1.62.09-3.22.04-4.66-.12-2.24-.34-4.41-.87-6.44-1.56-2.07-.71-4.24-1.48-6.49-2.32-2.09-.73-4.14-1.46-6.14-2.18-.88-.32-1.79-.66-2.72-1.01,2.02-1.68,3.79-3.61,5.31-5.75,2.13-3.01,4.11-6.24,5.89-9.6,1.71-3.23,3.45-6.47,5.19-9.62,1.63-2.96,3.59-5.6,5.83-7.84,1.21-1.21,2.62-2,4.33-2.41,2.14-.52,4.19-1.17,6.07-1.93,8.36-3.25,16.31-7.87,23.6-13.73,3.24-2.6,6.27-5.34,9.12-8.2,0,0,.02.02.03.02.43.34.47.58.49.66.1.51.13.96.1,1.33-.03.33-.12,1.01-.43,2.46l-12.31,58.33c-.44,2.19-1.13,3.75-2,4.5-.61.53-2.6,1.87-9.19,4.91l-1.16.54v3.55h34.36v-2.76c.38.63.81,1.22,1.3,1.75,2.19,2.31,5.4,3.48,9.54,3.48,6.29,0,9.38-2.24,10.86-4.12,1.82-2.31,2.34-5.38,1.5-8.89-.85-3.58.35-4.2,2.96-5.54,2.65-1.36,6.27-3.22,6.27-9.06s-3.65-8.69-6.32-10.65c-2.24-1.64-3.4-2.58-3.4-4.42,0-2.79,2.03-2.79,2.79-2.79,2.81,0,4.23,1.28,6.03,2.9,2.01,1.82,4.52,4.08,9.18,4.08,5.47,0,7.37-3.45,8.9-6.22,1.63-2.95,2.91-5.28,8.08-5.28,4.18,0,6.08,5.71,6.08,11.01,0,3.42-2.04,5.51-4.62,8.15-3.18,3.26-7.14,7.31-7.3,14.94-.18,6.01,2.79,9.59,5.32,11.52,2.66,2.04,6.21,3.31,9.48,3.41,5.39.21,14.62-2.32,15.36-13.09.51-6.93-1.91-11.82-3.85-15.75-1.36-2.76-2.54-5.15-2.44-7.6ZM408.82,31.15c-2.94,3.61-6.15,7.02-9.49,10.09l-6.3,5.48c-2.02,1.75-4.2,3.4-6.49,4.9l-.16.12c-1.77,1.43-3.73,2.63-5.85,3.56-.5.22-1,.44-1.51.65,2.15-3.7,4.31-7.45,6.45-11.18,3.02-5.27,6.29-10.6,9.71-15.82,1.19-1.74,2.45-3.59,3.77-5.56,1.28-1.9,2.66-3.8,4.1-5.64,1.38-1.77,2.87-3.4,4.43-4.82,1.5-1.37,3.19-2.53,4.94-3.41.73-.32,1.57-.61,2.5-.85.73-.19,1.44-.29,2.1-.29.1,0,.21,0,.31,0,.6.03,1.14.21,1.66.56.25.17.61.49.79,1.19.28,1.42.08,2.86-.61,4.4-.84,1.85-1.66,3.44-2.47,4.8-2.31,4.26-4.96,8.23-7.87,11.81ZM321.14,105.34c-1.38.99-2.87,1.82-4.46,2.47-2.58,1.06-5.36,1.73-8.26,1.98-1.82.17-3.8.22-5.71-.12-.79-.14-1.5-.39-2.11-.76-.43-.26-.73-.66-.96-1.27-.39-1.02-.17-1.54-.1-1.71.27-.62.66-1.11,1.18-1.5.65-.47,1.44-.86,2.34-1.16.98-.33,1.9-.58,2.71-.75,3.07-.41,6.16-.17,9.18.7,2.13.61,4.2,1.32,6.17,2.11ZM473.18,55.27h-7c.59-1.31,1.07-2.96,1.07-4.85,0-3.05-.97-4.61-1.83-5.99-.85-1.37-1.59-2.55-1.59-5.79,0-1.49.57-2.81,1.66-3.81,1.38-1.28,3.42-1.91,5.63-1.73,1.76.14,4.31,1.53,5.74,4.24,1.03,1.95,1.73,5.18-.74,9.49-.23.4-.46.78-.7,1.16-1.21,1.97-2.54,4.14-2.24,7.28Z"/>
      <path class="cls-1" d="M630.04,17.05c-10.53-11-24.55-16.57-41.66-16.57-11.26,0-21.36,2.52-30.01,7.49-8.68,4.99-15.5,12.12-20.27,21.21-4.74,9.03-7.14,19.58-7.14,31.33,0,17.76,5.3,32.25,15.77,43.07,10.48,10.83,24.49,16.33,41.65,16.33s31.18-5.51,41.69-16.37c10.49-10.84,15.8-25.32,15.8-43.03s-5.33-32.49-15.84-43.46ZM588.38,104.56c-12.86,0-23.14-3.96-30.54-11.76-7.43-7.83-11.2-18.7-11.2-32.28s3.77-24.88,11.21-32.77c7.41-7.85,17.68-11.84,30.54-11.84s23.13,4,30.54,11.87c7.44,7.92,11.21,18.93,11.21,32.73s-3.76,24.52-11.16,32.33c-7.38,7.78-17.67,11.72-30.58,11.72Z"/>
      <path class="cls-1" d="M604.18,67.33l-.36,1.55c-.9,3.88-2.46,6.74-4.63,8.5-2.16,1.76-5.24,2.65-9.14,2.65-5.26,0-9.26-1.66-12.22-5.07-2.99-3.44-4.51-8.36-4.51-14.61s1.53-11.27,4.55-14.77c2.99-3.46,6.97-5.14,12.18-5.14,7.67,0,11.84,3.51,13.11,11.03l.28,1.67h16.44l-.21-2.19c-.74-7.54-3.88-13.71-9.35-18.32-5.43-4.58-12.25-6.9-20.26-6.9-10.04,0-18.27,3.22-24.46,9.58-6.17,6.34-9.3,14.77-9.3,25.05s3.09,18.74,9.18,24.98c6.11,6.25,14.37,9.41,24.57,9.41,8.17,0,15.06-2.29,20.46-6.82,5.42-4.54,8.71-10.71,9.79-18.32l.32-2.28h-16.44Z"/>
      <polygon class="cls-1" points="791.64 32.77 778.49 32.77 778.49 64.22 791.64 64.22 791.64 55.07 800.79 55.07 800.79 41.92 791.64 41.92 791.64 32.77"/>
      <path class="cls-1" d="M764.19,51.07h-9.15v-5.15h9.15v-9.15h9.15v-13.15h-13.15v9.15h-18.3v40.6h9.15v9.15h9.15v9.15h9.15v14.3h-32.6v-5.15h9.15v-13.15h-21.88c-.89-1.37-1.49-2.67-1.49-3.97,0-1.99,1.39-4.35,3-7.07,2.2-3.72,4.94-8.35,4.94-14.02,0-3.71-1.22-6.84-3.53-9.06-2.75-2.63-6.81-3.84-12.12-3.63-2.74.14-4.74-.41-6.08-1.66-2.84-2.63-3-8.41-3.17-14.53-.28-10.24-.64-22.99-15.98-22.99-9.86,0-16.14,8.28-17.99,16.53-1.01,4.98-2.92,4.96-6.32,4.97h-.21c-6.3,0-11.42,4.86-11.45,10.85-.13,2.86.88,4.67,1.7,6.13.96,1.71,1.71,3.05.95,6.36-.68,3.06-2.39,4.07-4.55,5.36-2.88,1.71-6.45,3.83-6.45,10.97,0,6.6,5.32,8.94,10.01,11,5.09,2.23,8.2,3.83,8.2,8.31,0,3.87-2.77,4.7-9.09,5.7-5.53.87-13.1,2.06-13.1,10.47,0,6.13,4.45,12.68,16.93,12.68,17.26,0,19.12-13.18,19.12-18.85,0-5.28,1.96-6.44,4.24-7.79,2.14-1.26,4.8-2.84,4.8-7.41,0-5.82-4.7-7.52-8.13-8.75-.99-.36-1.85-.68-2.59-1.02h12.15c.88,4.74,3.96,7.81,8.07,7.81,3.24,0,5.27-2.01,6.9-3.62,1.51-1.49,2.5-2.4,3.92-2.4,2.48,0,4.57,2.53,4.57,5.53,0,6.01-1.99,9.34-4.1,12.87-2.21,3.7-4.5,7.53-3.97,14.01.52,5.9,6.02,10.18,13.09,10.18s12.91-4.32,15.05-10.66h1.42v9.15h40.6v-9.15h9.15v-40.6h-18.3v-18.3ZM691.84,55.13h-13.08c-2.26-5.41-2.09-16.4,1.52-22.56,1.71-2.92,3.96-4.39,6.68-4.39s4.63,1.19,5.96,3.64c3.29,6.08,1.71,17.98-1.08,23.31Z"/>
      <path class="cls-1" d="M834.51,132.84c-.42-1.41-.92-2.88-1.48-4.37-.49-1.31-.82-2.67-.98-4.04-.35-3.19-.54-6.55-.54-9.98s.09-7,.27-10.44c.18-3.44.38-6.96.62-10.45.23-3.52.39-6.86.48-9.93v-.09s-1.63-25.79-1.63-25.79c.36-3,.38-6.31.05-9.83-.31-3.39-.5-6.79-.54-10.11-.04-3.19.26-6.16.9-8.82.53-2.17,1.61-3.92,3.32-5.32,2.5.02,5.35.13,8.5.34,3.57.24,6.96.19,10.07-.14,3.33-.35,6.11-1.27,8.24-2.74,1.76-1.2,3.7-3.6,2.96-8.3-.37-2.11-1.4-3.73-3.07-4.82-1.43-.93-3.11-1.54-4.99-1.81-1.72-.24-3.57-.32-5.52-.22-1.83.09-3.57.18-5.2.27-1.88.09-4.11.16-6.65.2-2.55.05-5.18.09-7.87.14-2.71.05-5.33.12-7.78.21-2.48.09-4.54.19-6.21.28-4.44.27-8.78.18-12.88-.27-4.28-.46-8.33-.83-12.05-1.1-3.86-.28-7.46-.21-10.68.22-3.49.46-6.56,1.84-9.14,4.11l-.58.51-.09.77c-.32,2.85.03,5.29,1.03,7.23.99,1.92,2.36,3.43,4.09,4.49,1.63,1,3.49,1.67,5.54,1.99,1.91.29,3.83.39,5.68.29l16.71-.82.32-.02.3-.11c3.28-1.25,4.46-.79,4.81-.53.95.7,1.54,1.8,1.82,3.39.33,1.92.39,4.14.18,6.61-.23,2.68-.35,5.05-.35,6.98-.18,8.1-.14,16.57.14,25.17.27,8.58.55,17.05.82,25.41.27,8.27.39,16.42.34,24.23-.05,7.75-.48,14.96-1.29,21.4l-.07.52.2.49c.76,1.84,2.01,3.51,3.71,4.95,1.67,1.41,3.55,2.42,5.61,3,1.21.34,2.44.51,3.68.51.9,0,1.81-.09,2.72-.27,2.28-.45,4.33-1.61,6.07-3.47l.24-.26.14-.33c.67-1.56.95-3.19.84-4.83-.1-1.47-.38-2.97-.83-4.48Z"/>
      <path class="cls-1" d="M956.43,27.57c2.45-4.18,6.51-5.55,12.46-4.21,2.15.45,4.28,1.07,6.33,1.67,3.77,1.1,7.67,2.24,11.67,2.24,9.18,0,15.31-4.74,19.86-15.38l.74-1.73-8.02-4.01-.75,2.15c-1.81,5.22-5.54,6.05-7.13,6.18-3.69.4-7.39-.8-11.31-2.09-3.64-1.19-7.41-2.43-11.43-2.43-8.67,0-14.89,4.16-19.58,13.09l-.82,1.55,6.86,4.84,1.1-1.88Z"/>
      <path class="cls-1" d="M1067.4,46.64v-13.7h-6.85v-6.85h-6.85v-6.85h-45.09v6.85h-13.7v6.85h-6.85v13.7h-4.27c-.1-.53-.22-1.04-.38-1.51-.9-2.59-2.81-4.47-5.55-5.45-3.58-1.19-7.56-.61-11.76,1.69l.72-1.36h-17.86l-26.32,51.46c-.2-.26-.4-.52-.6-.77-2-2.57-3.72-4.79-3.72-7,0-1.99,1.39-4.35,3-7.07,2.2-3.72,4.94-8.35,4.94-14.02,0-3.71-1.22-6.84-3.53-9.06-2.75-2.63-6.81-3.84-12.12-3.63-2.73.14-4.74-.41-6.08-1.66-2.84-2.63-3-8.41-3.17-14.53-.28-10.24-.64-22.99-15.98-22.99-9.86,0-16.14,8.28-17.99,16.53-1.02,4.98-2.91,4.96-6.32,4.97h-.21c-6.3,0-11.42,4.86-11.45,10.85-.13,2.86.88,4.67,1.7,6.13.96,1.71,1.71,3.05.95,6.36-.68,3.06-2.39,4.07-4.55,5.36-2.88,1.71-6.45,3.83-6.45,10.97,0,6.6,5.32,8.94,10.01,11,5.09,2.23,8.2,3.83,8.2,8.31,0,3.87-2.77,4.7-9.09,5.7-5.53.87-13.1,2.06-13.1,10.47,0,6.13,4.45,12.68,16.93,12.68,17.26,0,19.12-13.18,19.12-18.85,0-5.28,1.96-6.44,4.24-7.79,2.14-1.26,4.8-2.84,4.8-7.41,0-5.82-4.7-7.52-8.13-8.75-.99-.36-1.85-.68-2.59-1.02h12.15c.88,4.74,3.96,7.81,8.07,7.81,3.24,0,5.27-2.01,6.9-3.62,1.51-1.49,2.5-2.4,3.92-2.4,2.48,0,4.57,2.53,4.57,5.53,0,6.01-1.99,9.34-4.1,12.87-2.21,3.7-4.5,7.53-3.97,14.01.52,5.9,6.02,10.18,13.09,10.18,2.51,0,4.83-.55,6.9-1.51h7.32l21.77-42.67c9.57-17.47,17.05-24.88,19.14-25.16.85.95.83,5.43-12.47,25.88-3.1,4.69-18.32,28.56-13.17,38.14.93,1.74,2.96,3.81,7.33,3.81,11.88,0,19.97-10.02,32.31-28.43v1.04h6.85v13.7h6.85v6.85h13.7v6.85h45.09v-6.85h6.85v-6.85h6.85v-13.7h6.85v-45.09h-6.85ZM1012.62,30.1h30.24v6.85h6.85v20.54h6.85v30.24h-6.85v13.7h-6.85v6.85h-30.24v-6.85h-6.85v-13.7h-6.85v-37.09h6.85v-13.7h6.85v-6.85ZM981.23,73.97c-.83,1.23-1.64,2.44-2.43,3.62-7.73,11.52-16.46,24.54-19.37,25.67-.06-1.22.74-6.13,11.57-23.05,4.66-7.38,8.07-13.8,10.23-19.24v13ZM887.67,55.13h-13.08c-2.26-5.41-2.09-16.4,1.52-22.56,1.71-2.92,3.96-4.39,6.68-4.39s4.63,1.19,5.96,3.64c3.29,6.08,1.71,17.98-1.08,23.31Z"/>
    </g>
  </g>
</svg>